{"title":"[Anime-Raws] Mushrambo (Shinzo) 02 Bee-Ware the Hunters [640x480","uid":5954488,"size":620022170,"categoryP":"video","categoryS":"other","magnet":"?xt=urn:btih:c53ed2bea66813f3e3b4658c462c118bb07927a4&amp;dn=%5BAnime-Raws%5D+Mushrambo+%28Shinzo%29+02+Bee-Ware+the+Hunters+%5B640x480&amp;tr=udp%3A%2F%2Ftracker.openbittorrent.com%3A80&amp;tr=udp%3A%2F%2Fopen.demonii.com%3A1337&amp;tr=udp%3A%2F%2Ftracker.coppersurfer.tk%3A6969&amp;tr=udp%3A%2F%2Fexodus.desync.com%3A6969","seeders":1,"leechers":0,"uploader":"yuhe","files":2,"time":1289658198,"description":"Video\nID : 1\nFormat : MPEG-4 Visual\nFormat profile : Advanced Simple@L5\nFormat settings, BVOP : Yes\nFormat settings, QPel : No\nFormat settings, GMC : No warppoints\nFormat settings, Matrix : Default (H.263)\nCodec ID : 20\nDuration : 21mn 15s\nBit rate mode : Variable\nBit rate : 1 601 Kbps\nMaximum bit rate : 9 968 Kbps\nWidth : 640 pixels\nHeight : 480 pixels\nDisplay aspect ratio : 4:3\nFrame rate mode : Constant\nFrame rate : 23.976 fps\nColor space : YUV\nChroma subsampling : 4:2:0\nBit depth : 8 bits\nScan type : Progressive\nBits/(Pixel*Frame) : 0.217\nStream size : 243 MiB (80%)\nTitle : Imported with GPAC 0.4.6-DEV (internal rev. 5)\nWriting library : XviD 1.2.1 (UTC 2008-12-04)\nEncoded date : UTC 2010-11-07 21:28:10\nTagged date : UTC 2010-11-07 21:28:20\n\nAudio #1\nID : 2\nFormat : AAC\nFormat/Info : Advanced Audio Codec\nFormat version : Version 4\nFormat profile : LC\nFormat settings, SBR : No\nCodec ID : 40\nDuration : 21mn 18s\nBit rate mode : Variable\nBit rate : 96.0 Kbps\nMaximum bit rate : 105 Kbps\nChannel(s) : 2 channels\nChannel positions : Front: L R\nSampling rate : 44.1 KHz\nStream size : 14.6 MiB (5%)\nTitle : Pt-Br\nLanguage : Portuguese\nEncoded date : UTC 2010-11-07 21:28:18\nTagged date : UTC 2010-11-07 21:28:20\n\nAudio #2\nID : 3\nFormat : AAC\nFormat/Info : Advanced Audio Codec\nFormat version : Version 4\nFormat profile : LC\nFormat settings, SBR : No\nCodec ID : 40\nDuration : 21mn 15s\nBit rate mode : Variable\nBit rate : 96.0 Kbps\nMaximum bit rate : 104 Kbps\nChannel(s) : 2 channels\nChannel positions : Front: L R\nSampling rate : 44.1 KHz\nStream size : 14.6 MiB (5%)\nTitle : Latino\nLanguage : Spanish\nEncoded date : UTC 2010-11-07 21:28:19\nTagged date : UTC 2010-11-07 21:28:20\n\nAudio #3\nID : 4\nFormat : AAC\nFormat/Info : Advanced Audio Codec\nFormat version : Version 4\nFormat profile : LC\nFormat settings, SBR : No\nCodec ID : 40\nDuration : 21mn 15s\nBit rate mode : Variable\nBit rate : 96.0 Kbps\nMaximum bit rate : 107 Kbps\nChannel(s) : 2 channels\nChannel positions : Front: L R\nSampling rate : 44.1 KHz\nStream size : 14.6 MiB (5%)\nTitle : Casteliano\nLanguage : Spanish\nEncoded date : UTC 2010-11-07 21:28:19\nTagged date : UTC 2010-11-07 21:28:20\n\nAudio #4\nID : 5\nFormat : AAC\nFormat/Info : Advanced Audio Codec\nFormat version : Version 4\nFormat profile : LC\nFormat settings, SBR : No\nCodec ID : 40\nDuration : 21mn 15s\nBit rate mode : Variable\nBit rate : 96.0 Kbps\nMaximum bit rate : 107 Kbps\nChannel(s) : 2 channels\nChannel positions : Front: L R\nSampling rate : 44.1 KHz\nStream size : 14.6 MiB (5%)\nTitle : Ingles\nLanguage : English\nEncoded date : UTC 2010-11-07 21:28:20\nTagged date : UTC 2010-11-07 21:28:20","torrent":{"xt":"urn:btih:c53ed2bea66813f3e3b4658c462c118bb07927a4","amp;dn":"%5BAnime-Raws%5D+Mushrambo+%28Shinzo%29+02+Bee-Ware+the+Hunters+%5B640x480","amp;tr":["udp%3A%2F%2Ftracker.openbittorrent.com%3A80","udp%3A%2F%2Fopen.demonii.com%3A1337","udp%3A%2F%2Ftracker.coppersurfer.tk%3A6969","udp%3A%2F%2Fexodus.desync.com%3A6969"],"infoHash":"c53ed2bea66813f3e3b4658c462c118bb07927a4","infoHashBuffer":{"type":"Buffer","data":[197,62,210,190,166,104,19,243,227,180,101,140,70,44,17,139,176,121,39,164]},"announce":[],"urlList":[]}}